PathFileType	4	(X/Y/Z)	Patient4_TMGait_0pt8_01_left_03.trc.trc
DataRate	CameraRate	NumFrames	NumMarkers	Units	OrigDataRate	OrigDataStartFrame	OrigNumFrames
88.607594936709	88.607594936709	5	33	mm	88.607594936709	53	       141
Frame#	Time	Sacral			L.Shoulder			Chest			R.Shoulder			Neck			R.ASIS			L.ASIS			R.Thigh.Superior			R.Thigh.Lateral			R.Thigh.Inferior			R.Patella			L.Thigh.Superior			L.Thigh.Lateral			L.Thigh.Inferior			L.Patella			L.Shank.Superior			L.Shank.Lateral			L.Shank.Inferior			R.Shank.Superior			R.Shank.Lateral			R.Shank.Inferior			R.Heel			R.Midfoot.Superior			R.Midfoot.Lateral			R.Toe			L.Heel			L.Midfoot.Lateral			L.Midfoot.Superior			L.Toe			L.Elbow			L.Wrist			R.Elbow			R.Wrist			
		X1	Y1	Z1	X2	Y2	Z2	X3	Y3	Z3	X4	Y4	Z4	X5	Y5	Z5	X6	Y6	Z6	X7	Y7	Z7	X8	Y8	Z8	X9	Y9	Z9	X10	Y10	Z10	X11	Y11	Z11	X12	Y12	Z12	X13	Y13	Z13	X14	Y14	Z14	X15	Y15	Z15	X16	Y16	Z16	X17	Y17	Z17	X18	Y18	Z18	X19	Y19	Z19	X20	Y20	Z20	X21	Y21	Z21	X22	Y22	Z22	X23	Y23	Z23	X24	Y24	Z24	X25	Y25	Z25	X26	Y26	Z26	X27	Y27	Z27	X28	Y28	Z28	X29	Y29	Z29	X30	Y30	Z30	X31	Y31	Z31	X32	Y32	Z32	X33	Y33	Z33	

53	3.036857142857	760.840716602892	1013.690825842469	425.283959115953	989.268370218286	1432.219363110117	260.961195214747	1064.703137492407	1355.658518363689	433.520924679534	965.542091840181	1437.091938705204	595.852929648785	969.861621024029	1494.416518923604	415.464911634024	978.720863076509	946.771424258141	557.566097872441	983.157816789103	960.307499815604	282.348073572596	1059.802652177148	778.390837661873	541.724371358617	1014.600712463571	659.031763183063	616.566097478599	1110.986689386718	616.896457807464	547.608690274323	1125.849952354450	502.717773663072	574.721679551993	1025.568836391901	752.047779865360	308.701987771171	933.939913273883	636.604509650324	253.673986714975	1018.546317542887	558.350686699393	317.047348757878	1018.403671609808	489.592114799151	328.149409621923	990.495683247499	417.959962135865	322.531769560203	899.389736907689	303.176497412243	276.197984169259	950.203203046260	193.582038006993	349.322468955804	1045.387987566902	430.616589662441	575.502643491013	916.734208997944	400.631709186342	625.588655945672	899.237104142914	292.084031940119	576.936143430138	697.929011081789	245.006652077671	534.682577033730	858.055334523974	172.321997972156	583.790169690868	746.189465691366	176.874771905014	607.969940309321	912.516444233989	54.532994837810	609.026124929202	822.114317207974	39.244809845744	401.006301300063	892.535905134966	35.549784507172	317.005079597138	977.290112955967	96.187310168198	340.399920300015	1104.254534279058	42.943016591055	306.650872606134	994.777784635781	1087.705869544794	124.697065439003	1143.493498703618	872.384351328863	137.541026736532	885.408077265557	1094.706819744332	702.774467949238	1050.673767597855	895.317278939285	693.707403838922	
54	3.048142857143	759.656497735908	1014.346082783776	423.987048099130	990.389723495780	1432.633290720267	260.673360492670	1064.393891928266	1355.692457282492	433.662330593955	964.395836119321	1437.192592683371	595.408560596132	970.036913633786	1494.682778917650	415.158065259798	977.166837192814	947.596814706998	557.095088221030	982.376226722845	960.463641445042	281.895178903899	1060.665667329578	782.441852430451	540.853205208860	1018.604975564214	662.515962669175	616.706908198233	1115.472131236120	622.172285457303	547.407129095915	1133.317487375679	508.747341216061	574.959696265291	1022.304359230089	751.031408528053	308.385026902962	929.016234371763	636.738815381582	253.209482873760	1012.301689425784	557.353320689137	316.674174241180	1011.143938508713	488.807009599455	327.942164079284	983.064802993332	417.587737074522	322.223754340385	891.414596543669	303.234297028066	275.952632227277	941.668864196445	193.439065607280	349.150337966438	1055.332440326190	434.271160329350	576.045492977983	928.046316489136	399.252602356722	626.283974006726	914.729698322118	289.928712132101	577.817350826165	715.257483768247	234.655687146917	535.975442349720	878.416063433793	168.902191127928	585.268489370486	766.354884277292	168.750306096114	609.383814754881	937.564630309898	53.378209132143	610.385183901616	812.993785558903	39.305292574498	400.961165624562	883.459641189721	35.541264254166	316.973294424942	968.223150705962	96.151414504933	340.344076130876	1095.193321471423	42.842296644683	306.614292287430	1002.992849338310	1089.671583346112	122.102811676584	1160.702603716405	880.984948456792	136.611670417844	877.792769542505	1095.827794229975	701.642047510712	1025.687607189275	882.567617887007	697.054823874878	
55	3.059428571429	758.509311626994	1014.892855592135	422.771794306923	991.489606546879	1432.934849421705	260.508219458304	1064.118909091378	1355.629615790639	433.901269653278	963.307789260654	1437.174106056810	595.096262791943	970.211889546611	1494.832007671329	414.968524506993	975.616348195205	948.217916270011	556.752248563186	981.639204079074	960.500583885453	281.597865506330	1061.248501294480	786.106566364677	540.185755328712	1022.079019981056	665.692772035672	616.865995595427	1119.310584435133	626.988892326212	547.221647211127	1139.984199922342	514.548929413451	575.187509621304	1019.043081590607	749.949062194391	308.225116976946	924.172351867099	636.813058482265	252.801628601993	1006.086473313202	556.338525894793	316.368010671633	1003.906763018890	487.999296601211	327.784836063178	975.673369801675	417.187963936881	321.957342909073	883.480227274692	303.277185385296	275.745117657712	933.133331320071	193.273713032321	349.009254371942	1064.803346615046	437.598184531015	576.617745394867	939.304853114897	397.097147231273	627.193271347737	930.642320324143	287.082624823087	578.975655221679	733.586295591124	222.827741914557	537.753754867600	899.802028132276	164.909582520336	587.301456677696	787.728533158951	159.609396964975	611.380336671767	963.963840150672	51.982164057353	612.340562757194	803.877558296172	39.364615623816	400.924569058881	874.383940878689	35.530603243395	316.948429018037	959.161115019128	96.114540709037	340.298308129921	1086.136996495512	42.737119067020	306.582852044706	1010.691996100529	1091.698637378764	119.666708671293	1177.207694427813	890.146909675118	135.972479532321	870.530683401282	1096.864736896555	700.528569978330	999.850742384017	871.392288238012	700.258137267219	
56	3.070714285714	757.418397160398	1015.326025958588	421.660381356930	992.571679415183	1433.116787704694	260.470690321476	1063.890326031343	1355.465783857190	434.241301878894	962.292280844545	1437.029826344821	594.923125500995	970.395987989847	1494.862269647119	414.899274011758	974.101229088705	948.630955281676	556.539270752887	980.958140169013	960.434174902466	281.440514078412	1061.550905985835	789.316704857037	539.698936515497	1024.986634578680	668.481865233305	617.022427761169	1122.455110902834	631.235161711785	547.030165136561	1145.769562246119	520.016290400352	575.381486927795	1015.803411628962	748.808455659635	308.219484292584	919.425008288824	636.827785997461	252.451049906333	999.929708927318	555.311447170814	316.119434306507	996.723904698447	487.168958161770	327.671881437788	968.348689469298	416.756084113197	321.731586661193	875.604596237160	303.307316112240	275.569617656485	924.600690766111	193.082626207013	348.900163638977	1073.723879654775	440.563851984863	577.202420723633	950.508402293631	394.211117091972	628.315643312704	946.943149187859	283.663422772905	580.396407012365	752.992298779830	209.754336595071	540.014015528760	922.141063202308	160.518449715495	589.824816475815	810.319616235917	149.701898421649	613.941156456158	991.571734032822	50.610830473362	614.854901940584	794.768104435540	39.424195650285	400.892390008516	865.307518344776	35.517542413059	316.929107271541	950.105112092982	96.076486872206	340.260563044318	1077.083882674752	42.623656772099	306.556166471897	1017.851660548303	1093.743728458721	117.391673040175	1192.937968125520	899.822661611368	135.617797808924	863.553033630013	1097.850695733180	699.423827730739	973.446472153177	861.954950339558	703.285028327638	
57	3.082000000000	756.404820307802	1015.645130898439	420.677818872087	993.635798946874	1433.177398702662	260.567756435896	1063.719197305998	1355.198878334185	434.683991656289	961.368271658770	1436.757491890380	594.894990503978	970.598071300329	1494.774703746002	414.956410596537	972.655970233472	948.839585407739	556.456874779502	980.339085905063	960.277269795850	281.405584921996	1061.571665319547	792.006145892895	539.366902016780	1027.278845399781	670.803809858108	617.157744630842	1124.855038501543	634.804730180888	546.822646406767	1150.592105452060	525.046551652735	575.520194179936	1012.605054640379	747.616788412755	308.356705241689	914.784435517168	636.785695170566	252.161065922330	993.857055430676	554.276733066459	315.920393615926	989.624573264399	486.317333694869	327.599044059629	961.113820254794	416.289563610422	321.547110225596	867.801700757220	303.328396327466	275.423016022174	916.075059480741	192.864404845307	348.825208560600	1082.020450947096	443.147547457543	577.784266455823	961.660888406067	390.656577292139	629.647929206303	963.600217592192	279.809711313084	582.055238055335	773.554448649970	195.701071701108	542.730858499802	945.361568547568	155.912632967146	592.744704887461	834.132130789562	139.295170690002	617.017116214003	1020.245093785512	49.540867784904	617.862594181722	785.667915101173	39.485221662914	400.860748962219	856.229748262478	35.502241157433	316.914691082974	941.056054307255	96.037249488351	340.228913166124	1068.032035979925	42.499397130267	306.533516198152	1024.461950546984	1095.768394013202	115.285778564028	1207.826538566626	909.958210528411	135.540524973160	856.784941447900	1098.832570622062	698.324157968913	946.812503302928	854.385069239445	706.096494950072	
